# xmcd CD database file
#
# Track frame offsets:
#	150
#	27640
#	46793
#	79082
#	97565
#	124923
#	146986
#	169324
#	185615
#	204518
#
# Disc length: 3019 seconds
#
# Revision: 0
# Processed by: cddbd v1.5.2PL0 Copyright (c) Steve Scherf et al.
# Submitted via: CDex 1.79
#
DISCID=880bc90a
DTITLE=Various Performers - This is Venus Jazz 80 Gold Discs from 2001 to 2004  Vol. 2 [CD1]
DYEAR=2013
DGENRE=Jazz
TTITLE0=I Wish I Knew - Richie Beirach Trio
TTITLE1=Bewithced, Bothered, And Bewildered - Eddie Higgins Trio
TTITLE2=Stolen Moments - One For Allt
TTITLE3=Gigi =Archie Shepp Quartet
TTITLE4=Dark Eyes - Steve Kuhn Trio
TTITLE5=Kiss Of Fire - Harold Maybern Trio
TTITLE6=When You Wish Upon A Star - Eddie Higgins and Scott Hamilton
TTITLE7=Mona Lisa - New York Trio
TTITLE8=Siciliano - Richie Beirach Trio
TTITLE9=Over The Rainbow - Eddie Higgins Trio
EXTD=YEAR: 2013
EXTT0=
EXTT1=
EXTT2=
EXTT3=
EXTT4=
EXTT5=
EXTT6=
EXTT7=
EXTT8=
EXTT9=
PLAYORDER=
